<svg width="56" height="56" viewBox="0 0 56 56" fill="none" xmlns="http://www.w3.org/2000/svg">
<path d="M28.0002 15.1667C28.0002 13.4814 27.6682 11.8126 27.0233 10.2556C26.3784 8.69855 25.4331 7.28381 24.2414 6.09212C23.0497 4.90044 21.6349 3.95514 20.0779 3.31021C18.5209 2.66527 16.8521 2.33333 15.1668 2.33333C13.4815 2.33333 11.8127 2.66527 10.2557 3.31021C8.69871 3.95514 7.28398 4.90044 6.09229 6.09212C4.90061 7.28381 3.95531 8.69855 3.31038 10.2556C2.66544 11.8126 2.3335 13.4814 2.3335 15.1667C2.3335 18.5703 3.68558 21.8345 6.09229 24.2412C8.49901 26.6479 11.7632 28 15.1668 28C18.5704 28 21.8347 26.6479 24.2414 24.2412C26.6481 21.8345 28.0002 18.5703 28.0002 15.1667ZM16.3335 16.3333L16.3358 22.176C16.3358 22.4854 16.2129 22.7822 15.9941 23.001C15.7753 23.2197 15.4786 23.3427 15.1692 23.3427C14.8597 23.3427 14.563 23.2197 14.3442 23.001C14.1254 22.7822 14.0025 22.4854 14.0025 22.176V16.3333H8.1575C7.84808 16.3333 7.55133 16.2104 7.33254 15.9916C7.11375 15.7728 6.99083 15.4761 6.99083 15.1667C6.99083 14.8572 7.11375 14.5605 7.33254 14.3417C7.55133 14.1229 7.84808 14 8.1575 14H14.0002V8.16666C14.0002 7.85724 14.1231 7.5605 14.3419 7.3417C14.5607 7.12291 14.8574 7 15.1668 7C15.4762 7 15.773 7.12291 15.9918 7.3417C16.2106 7.5605 16.3335 7.85724 16.3335 8.16666V14H22.1738C22.4833 14 22.78 14.1229 22.9988 14.3417C23.2176 14.5605 23.3405 14.8572 23.3405 15.1667C23.3405 15.4761 23.2176 15.7728 22.9988 15.9916C22.78 16.2104 22.4833 16.3333 22.1738 16.3333H16.3335ZM15.1668 30.3333C17.8872 30.3337 20.5576 29.6023 22.8981 28.2159C25.2387 26.8295 27.1633 24.8391 28.4703 22.4533C29.7772 20.0675 30.4184 17.374 30.3267 14.6552C30.2349 11.9364 29.4136 9.2923 27.9488 7H41.4168C43.4281 7 45.3569 7.79895 46.7791 9.2211C48.2012 10.6433 49.0002 12.5721 49.0002 14.5833V30.3333H37.9168C35.9056 30.3333 33.9768 31.1323 32.5546 32.5544C31.1325 33.9766 30.3335 35.9054 30.3335 37.9167V49H14.5835C12.5723 49 10.6434 48.201 9.22127 46.7789C7.79912 45.3567 7.00016 43.4279 7.00016 41.4167V27.9487C9.43748 29.51 12.2723 30.3378 15.1668 30.3333ZM47.9735 33.8333L33.8335 47.9733V37.9167C33.8335 35.6627 35.6628 33.8333 37.9168 33.8333H47.9735Z" fill="#1F28CF"/>
</svg>
