<svg width="451" height="450" viewBox="0 0 451 450" fill="none" xmlns="http://www.w3.org/2000/svg">
<g clip-path="url(#clip0_119_382)">
<path d="M43.7747 379.086L39.8114 363.502C32.7845 360.533 25.5952 357.961 18.2777 355.799L17.7775 363.041L15.7487 355.062C6.6738 352.476 0.5 351.338 0.5 351.338C0.5 351.338 8.83726 382.955 26.3298 407.126L46.7102 410.695L30.8773 412.971C33.0776 415.611 35.4423 418.11 37.9573 420.454C63.4011 444.001 91.7412 454.804 101.256 444.584C110.771 434.363 97.8576 406.99 72.4138 383.445C64.526 376.146 54.6174 370.288 44.6984 365.676L43.7747 379.086Z" fill="#F2F2F2"/>
<path d="M81.4651 362.158L86.1521 346.776C81.6765 340.613 76.8558 334.706 71.7129 329.084L67.5298 335.026L69.9294 327.15C63.5007 320.262 58.8058 316.106 58.8058 316.106C58.8058 316.106 49.5533 347.468 51.994 377.174L67.5902 390.733L52.8537 384.522C53.3694 387.916 54.0986 391.274 55.0371 394.577C64.6105 427.847 83.2697 451.701 96.7132 447.856C110.157 444.01 113.295 413.922 103.721 380.652C100.754 370.338 95.308 360.217 89.2079 351.158L81.4651 362.158Z" fill="#F2F2F2"/>
<path d="M314.508 106.605H312.035V39.0821C312.035 33.9498 311.022 28.8677 309.052 24.126C307.082 19.3844 304.194 15.076 300.554 11.4469C296.914 7.81778 292.593 4.93901 287.837 2.97495C283.081 1.01089 277.984 0 272.836 0H129.347C118.95 0 108.98 4.11757 101.629 11.4469C94.2773 18.7762 90.1475 28.7169 90.1475 39.0821V409.526C90.1475 414.658 91.1614 419.74 93.1313 424.482C95.1012 429.224 97.9886 433.532 101.629 437.161C105.269 440.79 109.59 443.669 114.346 445.633C119.102 447.597 124.199 448.608 129.347 448.608H272.836C283.233 448.608 293.203 444.49 300.554 437.161C307.905 429.832 312.035 419.891 312.035 409.526V154.67H314.507L314.508 106.605Z" fill="#E6E6E6"/>
<path d="M274.418 10.1641H255.689C256.551 12.2696 256.879 14.5541 256.647 16.8162C256.414 19.0783 255.627 21.2486 254.354 23.1359C253.082 25.0231 251.364 26.5695 249.351 27.6387C247.338 28.7078 245.092 29.267 242.811 29.2669H160.607C158.327 29.2668 156.081 28.7075 154.068 27.6382C152.056 26.569 150.337 25.0226 149.065 23.1354C147.793 21.2481 147.006 19.0779 146.773 16.8159C146.541 14.5539 146.869 12.2695 147.731 10.1641H130.237C122.473 10.1641 115.027 13.239 109.537 18.7125C104.048 24.186 100.963 31.6096 100.963 39.3502V409.256C100.963 416.997 104.048 424.42 109.537 429.894C115.027 435.367 122.473 438.442 130.237 438.442H274.418C282.182 438.442 289.628 435.367 295.117 429.894C300.607 424.42 303.691 416.997 303.691 409.256V39.3496C303.691 31.6091 300.607 24.1856 295.117 18.7123C289.627 13.2389 282.182 10.1641 274.418 10.1641Z" fill="white"/>
<path d="M183.955 157.516C183.954 154.93 184.637 152.39 185.934 150.151C187.231 147.912 189.097 146.053 191.344 144.762C189.098 143.469 186.551 142.788 183.958 142.787C181.365 142.787 178.817 143.467 176.571 144.76C174.325 146.052 172.46 147.912 171.164 150.151C169.867 152.39 169.185 154.929 169.185 157.515C169.185 160.1 169.867 162.64 171.164 164.879C172.46 167.118 174.325 168.977 176.571 170.27C178.817 171.562 181.365 172.242 183.958 172.242C186.551 172.242 189.098 171.561 191.344 170.268C189.097 168.977 187.232 167.118 185.934 164.879C184.637 162.641 183.955 160.101 183.955 157.516Z" fill="#CCCCCC"/>
<path d="M202.525 157.516C202.524 154.93 203.207 152.39 204.504 150.151C205.801 147.912 207.667 146.053 209.914 144.762C207.668 143.469 205.121 142.788 202.528 142.787C199.934 142.787 197.387 143.467 195.141 144.76C192.895 146.052 191.03 147.912 189.734 150.151C188.437 152.39 187.754 154.929 187.754 157.515C187.754 160.1 188.437 162.64 189.734 164.879C191.03 167.118 192.895 168.977 195.141 170.27C197.387 171.562 199.934 172.242 202.528 172.242C205.121 172.242 207.668 171.561 209.914 170.268C207.667 168.977 205.801 167.118 204.504 164.879C203.207 162.641 202.524 160.101 202.525 157.516Z" fill="#CCCCCC"/>
<path d="M220.673 172.243C228.831 172.243 235.444 165.649 235.444 157.515C235.444 149.381 228.831 142.788 220.673 142.788C212.515 142.788 205.901 149.381 205.901 157.515C205.901 165.649 212.515 172.243 220.673 172.243Z" fill="black"/>
<path d="M245.36 203.515H159.268C158.449 203.514 157.663 203.189 157.083 202.611C156.504 202.033 156.178 201.25 156.177 200.432V114.598C156.178 113.781 156.504 112.997 157.083 112.419C157.663 111.842 158.449 111.517 159.268 111.516H245.36C246.179 111.517 246.965 111.842 247.545 112.419C248.124 112.997 248.45 113.781 248.451 114.598V200.432C248.45 201.25 248.124 202.033 247.545 202.611C246.965 203.189 246.179 203.514 245.36 203.515ZM159.268 112.749C158.776 112.75 158.305 112.945 157.957 113.291C157.609 113.638 157.414 114.108 157.413 114.598V200.433C157.414 200.923 157.609 201.393 157.957 201.74C158.305 202.087 158.776 202.282 159.268 202.282H245.36C245.851 202.282 246.323 202.087 246.671 201.74C247.018 201.393 247.214 200.923 247.214 200.433V114.598C247.214 114.108 247.018 113.638 246.671 113.291C246.323 112.945 245.851 112.75 245.36 112.749H159.268Z" fill="#CCCCCC"/>
<path d="M264.583 269.311H132.544V270.544H264.583V269.311Z" fill="#CCCCCC"/>
<path d="M136.714 261.613C139.017 261.613 140.884 259.751 140.884 257.455C140.884 255.159 139.017 253.298 136.714 253.298C134.411 253.298 132.544 255.159 132.544 257.455C132.544 259.751 134.411 261.613 136.714 261.613Z" fill="black"/>
<path d="M264.583 310.882H132.544V312.115H264.583V310.882Z" fill="#CCCCCC"/>
<path d="M136.714 303.185C139.017 303.185 140.884 301.324 140.884 299.028C140.884 296.732 139.017 294.87 136.714 294.87C134.411 294.87 132.544 296.732 132.544 299.028C132.544 301.324 134.411 303.185 136.714 303.185Z" fill="black"/>
<path d="M262.166 358.222H220.438C219.718 358.222 219.027 357.936 218.517 357.428C218.007 356.919 217.721 356.23 217.72 355.512V340.93C217.721 340.212 218.007 339.523 218.517 339.014C219.027 338.506 219.718 338.22 220.438 338.22H262.166C262.887 338.22 263.578 338.506 264.088 339.014C264.597 339.523 264.884 340.212 264.885 340.93V355.512C264.884 356.23 264.597 356.919 264.088 357.428C263.578 357.936 262.887 358.222 262.166 358.222Z" fill="black"/>
<path d="M150.316 261.613C152.619 261.613 154.486 259.751 154.486 257.455C154.486 255.159 152.619 253.298 150.316 253.298C148.013 253.298 146.146 255.159 146.146 257.455C146.146 259.751 148.013 261.613 150.316 261.613Z" fill="black"/>
<path d="M163.918 261.613C166.221 261.613 168.088 259.751 168.088 257.455C168.088 255.159 166.221 253.298 163.918 253.298C161.615 253.298 159.748 255.159 159.748 257.455C159.748 259.751 161.615 261.613 163.918 261.613Z" fill="black"/>
<path d="M150.316 303.185C152.619 303.185 154.486 301.324 154.486 299.028C154.486 296.732 152.619 294.87 150.316 294.87C148.013 294.87 146.146 296.732 146.146 299.028C146.146 301.324 148.013 303.185 150.316 303.185Z" fill="black"/>
<path d="M163.918 303.185C166.221 303.185 168.088 301.324 168.088 299.028C168.088 296.732 166.221 294.87 163.918 294.87C161.615 294.87 159.748 296.732 159.748 299.028C159.748 301.324 161.615 303.185 163.918 303.185Z" fill="black"/>
<path d="M341.649 294.826C341.946 294.961 342.231 295.12 342.502 295.3L369.599 283.769L370.566 276.652L381.394 276.586L380.754 292.909L344.988 302.339C344.913 302.587 344.823 302.83 344.718 303.067C344.201 304.167 343.369 305.09 342.328 305.721C341.286 306.351 340.081 306.661 338.863 306.61C337.646 306.56 336.471 306.152 335.485 305.438C334.499 304.724 333.747 303.736 333.323 302.597C332.899 301.458 332.821 300.219 333.101 299.037C333.38 297.854 334.004 296.78 334.894 295.95C335.784 295.12 336.899 294.57 338.101 294.37C339.303 294.17 340.538 294.329 341.649 294.826Z" fill="#FFB8B8"/>
<path d="M385.332 442.738H377.925L374.401 414.254L385.333 414.255L385.332 442.738Z" fill="#FFB8B8"/>
<path d="M372.634 440.628H386.918V449.595H363.64C363.64 447.217 364.588 444.936 366.274 443.254C367.961 441.573 370.249 440.628 372.634 440.628Z" fill="#2F2E41"/>
<path d="M414.137 440.652L406.766 441.376L400.458 413.374L411.337 412.305L414.137 440.652Z" fill="#FFB8B8"/>
<path d="M401.294 439.793L415.51 438.397L416.391 447.321L393.225 449.596C393.109 448.424 393.226 447.24 393.569 446.114C393.912 444.987 394.474 443.938 395.223 443.028C395.972 442.118 396.894 441.363 397.936 440.808C398.977 440.253 400.118 439.908 401.294 439.793Z" fill="#2F2E41"/>
<path d="M387.393 246.441C395.588 246.441 402.232 239.818 402.232 231.647C402.232 223.476 395.588 216.853 387.393 216.853C379.198 216.853 372.555 223.476 372.555 231.647C372.555 239.818 379.198 246.441 387.393 246.441Z" fill="#FFB8B8"/>
<path d="M376.269 436.978C375.633 436.979 375.016 436.757 374.528 436.349C374.04 435.942 373.712 435.376 373.602 434.751C369.768 413.533 357.237 344.155 356.937 342.233C356.931 342.189 356.927 342.144 356.928 342.099V336.926C356.927 336.738 356.986 336.554 357.096 336.401L358.752 334.089C358.831 333.978 358.934 333.886 359.054 333.821C359.173 333.756 359.307 333.719 359.443 333.713C368.881 333.272 399.791 331.979 401.284 333.839C402.784 335.708 402.254 341.372 402.132 342.489L402.138 342.605L416.025 431.147C416.133 431.853 415.959 432.574 415.539 433.153C415.119 433.732 414.487 434.122 413.78 434.24L405.107 435.665C404.461 435.768 403.799 435.637 403.242 435.295C402.685 434.953 402.269 434.424 402.071 433.802C399.388 425.256 390.393 396.506 387.276 385.381C387.256 385.311 387.212 385.25 387.15 385.21C387.089 385.17 387.015 385.153 386.943 385.163C386.87 385.174 386.804 385.21 386.756 385.265C386.708 385.321 386.682 385.392 386.683 385.465C386.839 396.069 387.216 423.126 387.345 432.47L387.359 433.477C387.365 434.158 387.114 434.817 386.657 435.323C386.199 435.829 385.567 436.145 384.887 436.209L376.523 436.967C376.438 436.974 376.353 436.978 376.269 436.978Z" fill="#2F2E41"/>
<path d="M377.976 252.258C375.387 253.793 373.837 256.614 372.948 259.484C371.302 264.797 370.311 270.291 369.997 275.843L369.057 292.468L357.424 336.542C367.507 345.047 373.323 343.114 386.895 336.157C400.467 329.2 402.018 338.477 402.018 338.477L404.732 300.976L408.61 259.996C407.74 258.951 406.754 258.007 405.673 257.181C402.089 254.402 397.919 252.471 393.477 251.532C389.035 250.594 384.438 250.672 380.031 251.763L377.976 252.258Z" fill="black"/>
<path d="M374.198 303.727C374.511 303.845 374.814 303.986 375.104 304.151L401.897 290.781L402.342 283.537L413.394 282.777L413.987 299.289L378.181 311.095C377.889 312.345 377.221 313.477 376.268 314.34C375.315 315.203 374.121 315.756 372.844 315.926C371.568 316.096 370.27 315.874 369.123 315.291C367.976 314.707 367.035 313.789 366.424 312.659C365.813 311.529 365.561 310.24 365.703 308.964C365.845 307.688 366.372 306.486 367.216 305.516C368.06 304.546 369.18 303.856 370.427 303.536C371.674 303.217 372.989 303.283 374.198 303.727Z" fill="#FFB8B8"/>
<path d="M408.416 260.184C415.008 262.504 416.169 287.635 416.169 287.635C408.414 283.382 399.107 290.342 399.107 290.342C399.107 290.342 397.168 283.769 394.842 275.264C394.139 272.871 394.055 270.34 394.597 267.907C395.14 265.473 396.291 263.216 397.944 261.346C397.944 261.346 401.824 257.863 408.416 260.184Z" fill="black"/>
<path d="M400.698 235.559C398.85 234.085 396.327 236.765 396.327 236.765L394.848 223.493C394.848 223.493 385.604 224.597 379.688 223.125C373.772 221.653 372.847 228.471 372.847 228.471C372.542 225.717 372.48 222.941 372.663 220.176C373.032 216.858 377.839 213.54 386.344 211.328C394.848 209.116 399.285 218.701 399.285 218.701C405.202 221.65 402.547 237.034 400.698 235.559Z" fill="#2F2E41"/>
</g>
<defs>
<clipPath id="clip0_119_382">
<rect width="450" height="450" fill="white" transform="translate(0.5)"/>
</clipPath>
</defs>
</svg>
